Coordinates
version=1
nRows=14
nColumns=40
inDegrees=yes

Units are S.I. units (second, meters, Newtons, ...)
If the header above contains a line with 'inDegrees', this indicates whether rotational values are in degrees (yes) or radians (no).

endheader
time	pelvis_tilt	pelvis_list	pelvis_rotation	pelvis_tx	pelvis_ty	pelvis_tz	hip_flexion_r	hip_adduction_r	hip_rotation_r	knee_angle_r	knee_angle_r_beta	ankle_angle_r	subtalar_angle_r	mtp_angle_r	hip_flexion_l	hip_adduction_l	hip_rotation_l	knee_angle_l	knee_angle_l_beta	ankle_angle_l	subtalar_angle_l	mtp_angle_l	lumbar_extension	lumbar_bending	lumbar_rotation	arm_flex_r	arm_add_r	arm_rot_r	elbow_flex_r	pro_sup_r	wrist_flex_r	wrist_dev_r	arm_flex_l	arm_add_l	arm_rot_l	elbow_flex_l	pro_sup_l	wrist_flex_l	wrist_dev_l
      3.47500000	    -26.48897297	      2.93554797	      3.21704057	     -0.33437024	      0.85258193	     -1.13098875	     11.96307636	     -5.46994425	      7.10253087	     68.84031694	      1.20149019	    -16.50901779	      0.00000000	      0.00000000	     66.69896909	      6.96838291	     -4.82375672	     72.15525883	      1.25934684	     19.91106845	      0.00000000	      0.00000000	     -8.35235895	    -10.38354550	     -0.50868131	     89.96026552	     -0.11023246	      7.99877999	     46.44546592	     78.54176465	      0.00000000	      0.00000000	     89.96670443	     -3.51715033	     16.40660937	     51.14532967	     18.56792696	      0.00000000	      0.00000000
      3.48000000	    -26.35356106	      2.88532635	      3.31428761	     -0.33389430	      0.85433223	     -1.13117969	     11.92301342	     -5.40876491	      6.95972700	     68.85001725	      1.20165949	    -16.46601451	      0.00000000	      0.00000000	     66.34621914	      6.99509527	     -4.80406967	     71.80047777	      1.25315474	     19.75852150	      0.00000000	      0.00000000	     -8.38171125	    -10.30635595	     -0.59936698	     89.95999848	     -0.09443122	      8.06887456	     46.34756108	     78.59121473	      0.00000000	      0.00000000	     89.96643064	     -3.48185481	     16.55320508	     50.92404701	     18.56392552	      0.00000000	      0.00000000
      3.48500000	    -26.11547603	      2.94881630	      3.46169853	     -0.33332387	      0.85603688	     -1.13142614	     11.74160607	     -5.55362463	      6.65759752	     68.83853688	      1.20145912	    -16.37036253	      0.00000000	      0.00000000	     65.90831626	      7.19716084	     -4.69830208	     71.50385278	      1.24797766	     19.57251717	      0.00000000	      0.00000000	     -8.51752588	    -10.35692927	     -0.80991278	     89.95995982	     -0.14478517	      8.32485811	     46.17034710	     78.78650582	      0.00000000	      0.00000000	     89.96630997	     -3.54051154	     16.97004043	     50.65575209	     18.58996986	      0.00000000	      0.00000000
      3.49000000	    -25.99449853	      2.89398993	      3.49092156	     -0.33302412	      0.85764221	     -1.13149678	     11.78193588	     -5.45481096	      6.60689561	     68.93021195	      1.20305915	    -16.34346234	      0.00000000	      0.00000000	     65.61529594	      7.15429467	     -4.70063600	     71.22598781	      1.24312800	     19.51120076	      0.00000000	      0.00000000	     -8.53563083	    -10.25381060	     -0.81663448	     89.95956502	     -0.11729379	      8.35138537	     46.11287863	     78.82219411	      0.00000000	      0.00000000	     89.96598662	     -3.50024622	     17.02371716	     50.55510433	     18.59152188	      0.00000000	      0.00000000
      3.49500000	    -25.87867445	      2.85323273	      3.51648014	     -0.33269230	      0.85928140	     -1.13143409	     11.78803208	     -5.36957888	      6.60101342	     68.94400081	      1.20329981	    -16.26336758	      0.00000000	      0.00000000	     65.29415817	      7.12707560	     -4.64817784	     70.90231989	      1.23747893	     19.35435899	      0.00000000	      0.00000000	     -8.55301582	    -10.19292368	     -0.80720058	     89.95930572	     -0.10403544	      8.38037121	     46.03592469	     78.87018158	      0.00000000	      0.00000000	     89.96568401	     -3.46178505	     17.19189495	     50.34331343	     18.59302084	      0.00000000	      0.00000000
      3.50000000	    -25.73116164	      2.81440691	      3.48661662	     -0.33225038	      0.86088622	     -1.13147953	     11.80016238	     -5.33044778	      6.52329935	     69.04954769	      1.20514195	    -16.20474312	      0.00000000	      0.00000000	     64.96744452	      7.07332131	     -4.61627744	     70.62957935	      1.23271871	     19.23482548	      0.00000000	      0.00000000	     -8.55518488	    -10.13028474	     -0.78005467	     89.95918714	     -0.09815549	      8.45735565	     45.93006212	     78.91325847	      0.00000000	      0.00000000	     89.96540494	     -3.44082671	     17.33266187	     50.16669668	     18.59300608	      0.00000000	      0.00000000
      3.50500000	    -25.59694721	      2.77415510	      3.54208262	     -0.33185331	      0.86250247	     -1.13150813	     11.78582428	     -5.28977451	      6.39291987	     69.09045533	      1.20585593	    -16.08800988	      0.00000000	      0.00000000	     64.63434060	      7.08281553	     -4.56762076	     70.32544397	      1.22741055	     19.06290346	      0.00000000	      0.00000000	     -8.56423554	    -10.06162432	     -0.73828665	     89.95898673	     -0.15197381	      8.52089292	     45.76854793	     78.96899562	      0.00000000	      0.00000000	     89.96511191	     -3.34511463	     17.56325974	     49.90469276	     18.59459647	      0.00000000	      0.00000000
      3.51000000	    -25.43764336	      2.71128004	      3.58587648	     -0.33129350	      0.86406978	     -1.13169848	     11.71977261	     -5.20620313	      6.27990789	     69.12573599	      1.20647169	    -16.06180940	      0.00000000	      0.00000000	     64.29269243	      7.08185464	     -4.50332103	     70.05207907	      1.22263943	     18.93604169	      0.00000000	      0.00000000	     -8.59081937	     -9.94608913	     -0.73830857	     89.95868545	     -0.20947442	      8.63406465	     45.66206703	     79.02152894	      0.00000000	      0.00000000	     89.96481815	     -3.28404916	     17.76653386	     49.69987589	     18.59672097	      0.00000000	      0.00000000
      3.51500000	    -25.22474618	      2.67489039	      3.59326329	     -0.33075009	      0.86576808	     -1.13166602	     11.56844544	     -5.14712063	      6.22105049	     69.05988411	      1.20532236	    -15.91248370	      0.00000000	      0.00000000	     63.90733246	      7.08860761	     -4.38328468	     69.80919526	      1.21840031	     18.75568417	      0.00000000	      0.00000000	     -8.66280820	     -9.89003177	     -0.65885236	     89.95852076	     -0.31699744	      8.80196533	     45.52977272	     79.18114740	      0.00000000	      0.00000000	     89.96479017	     -3.24722041	     18.17873650	     49.40013689	     18.62414762	      0.00000000	      0.00000000
      3.52000000	    -25.09484527	      2.62481621	      3.55862493	     -0.33042730	      0.86728546	     -1.13167931	     11.60598812	     -5.10406107	      6.16178359	     69.16554883	      1.20716656	    -15.89219832	      0.00000000	      0.00000000	     63.61974745	      7.01863642	     -4.35968288	     69.57986718	      1.21439778	     18.64665440	      0.00000000	      0.00000000	     -8.66143224	     -9.80068081	     -0.59243065	     89.95826998	     -0.31515822	      8.83544289	     45.48831407	     79.21922786	      0.00000000	      0.00000000	     89.96440497	     -3.21488498	     18.26119058	     49.33943080	     18.62990811	      0.00000000	      0.00000000
      3.52500000	    -24.99112672	      2.58861770	      3.50977344	     -0.33000696	      0.86882061	     -1.13152094	     11.64103254	     -5.02319033	      6.12669280	     69.21012591	      1.20794457	    -15.90374260	      0.00000000	      0.00000000	     63.32517378	      6.94166756	     -4.33398102	     69.27742485	      1.20911916	     18.52029010	      0.00000000	      0.00000000	     -8.61657529	     -9.74663844	     -0.47310533	     89.95799457	     -0.34307160	      8.89646324	     45.35180190	     79.26299628	      0.00000000	      0.00000000	     89.96406552	     -3.13516273	     18.42158424	     49.16992161	     18.63205199	      0.00000000	      0.00000000
      3.53000000	    -24.83679770	      2.54404708	      3.43293796	     -0.32959943	      0.87041032	     -1.13149985	     11.61688232	     -4.94492505	      6.12838363	     69.25193856	      1.20867434	    -15.86994237	      0.00000000	      0.00000000	     62.98915470	      6.85834243	     -4.31640356	     68.99565957	      1.20420143	     18.36426000	      0.00000000	      0.00000000	     -8.62437118	     -9.67245264	     -0.32401121	     89.95780939	     -0.38880273	      8.94723492	     45.23843184	     79.31276488	      0.00000000	      0.00000000	     89.96385959	     -3.06517979	     18.60317620	     48.99878634	     18.63418336	      0.00000000	      0.00000000
      3.53500000	    -24.71456370	      2.54227341	      3.41374957	     -0.32906562	      0.87194693	     -1.13150072	     11.60624127	     -4.89854672	      6.12492913	     69.28907696	      1.20932253	    -15.83800469	      0.00000000	      0.00000000	     62.66787035	      6.85597727	     -4.27862363	     68.68799032	      1.19883159	     18.23594780	      0.00000000	      0.00000000	     -8.59995008	     -9.63926386	     -0.21885361	     89.95755575	     -0.45446961	      9.00690396	     45.14483905	     79.35946798	      0.00000000	      0.00000000	     89.96360152	     -3.02428346	     18.78989532	     48.84600603	     18.63663559	      0.00000000	      0.00000000
      3.54000000	    -24.50023876	      2.48294697	      3.37598348	     -0.32858857	      0.87364201	     -1.13147054	     11.51711455	     -4.83004103	      6.06132448	     69.32499183	      1.20994936	    -15.84110748	      0.00000000	      0.00000000	     62.26265331	      6.80752546	     -4.19879885	     68.41890195	      1.19413511	     18.10156661	      0.00000000	      0.00000000	     -8.67579917	     -9.53180755	     -0.09878675	     89.95710975	     -0.49630885	      9.04266303	     45.03120340	     79.40864393	      0.00000000	      0.00000000	     89.96340328	     -2.97858484	     18.96812575	     48.70468849	     18.64176882	      0.00000000	      0.00000000
